<svg width="44.000000" height="44.000000" viewBox="0 0 44 44" fill="none" xmlns="http://www.w3.org/2000/svg" xmlns:xlink="http://www.w3.org/1999/xlink">
	<desc>
			Created with Pixso.
	</desc>
	<defs/>
	<path id="inst-icon-g" d="M30.25 0C37.84 0 44 6.15 44 13.75L44 30.25C44 37.84 37.84 44 30.25 44L13.75 44C6.15 44 0 37.84 0 30.25L0 13.75C0 6.15 6.15 0 13.75 0L30.25 0ZM30.25 2.75C36.32 2.75 41.25 7.67 41.25 13.75L41.25 30.25C41.25 36.32 36.32 41.25 30.25 41.25L13.75 41.25C7.67 41.25 2.75 36.32 2.75 30.25L2.75 13.75C2.75 7.67 7.67 2.75 13.75 2.75L30.25 2.75ZM38.5 9.16C38.5 10.68 37.22 11.9 35.64 11.9C34.06 11.9 32.78 10.68 32.78 9.16C32.78 7.64 34.06 6.41 35.64 6.41C37.22 6.41 38.5 7.64 38.5 9.16ZM22.2 33C28.39 33 33.41 28.17 33.41 22.22C33.41 16.27 28.39 11.45 22.2 11.45C16.01 11.45 11 16.27 11 22.22C11 28.17 16.01 33 22.2 33ZM22.2 29.32C26.4 29.32 29.67 26.07 29.67 22.22C29.67 18.37 26.4 15.12 22.2 15.12C18.01 15.12 14.74 18.37 14.74 22.22C14.74 26.07 18.01 29.32 22.2 29.32Z" fill="#41D07A" fill-opacity="1.000000" fill-rule="evenodd"/>
</svg>
