<svg width="44.000000" height="44.000000" viewBox="0 0 44 44" fill="none" xmlns="http://www.w3.org/2000/svg" xmlns:xlink="http://www.w3.org/1999/xlink">
	<desc>
			Created with Pixso.
	</desc>
	<defs/>
	<path id="telegram-icon-g" d="M30.25 0C37.84 0 44 6.15 44 13.75L44 30.25C44 37.84 37.84 44 30.25 44L13.75 44C6.15 44 0 37.84 0 30.25L0 13.75C0 6.15 6.15 0 13.75 0L30.25 0ZM30.25 2.75C36.32 2.75 41.25 7.67 41.25 13.75L41.25 30.25C41.25 36.32 36.32 41.25 30.25 41.25L13.75 41.25C7.67 41.25 2.75 36.32 2.75 30.25L2.75 13.75C2.75 7.67 7.67 2.75 13.75 2.75L30.25 2.75ZM23.24 15.88Q19.91 17.24 9.95 21.51C8.87 21.93 8.3 22.34 8.25 22.75C8.16 23.43 9.03 23.7 10.22 24.06C10.38 24.11 10.54 24.17 10.71 24.22C11.88 24.59 13.44 25.03 14.26 25.04C14.99 25.06 15.82 24.76 16.73 24.15Q26.04 17.97 26.34 17.9C26.48 17.87 26.68 17.83 26.81 17.94C26.95 18.06 26.93 18.28 26.92 18.34C26.81 18.81 20.97 24.03 20.64 24.37C20.46 24.55 20.28 24.73 20.1 24.89C19.02 25.92 18.21 26.69 20.15 27.94C22.1 29.2 23.23 30.01 25.23 31.3C25.5 31.47 25.76 31.65 26 31.82C26.95 32.49 27.8 33.08 28.84 32.99C29.45 32.93 30.08 32.37 30.4 30.69C31.16 26.72 32.64 18.12 32.98 14.58C33.01 14.27 32.98 13.87 32.95 13.7C32.92 13.52 32.85 13.27 32.62 13.09C32.35 12.87 31.93 12.83 31.74 12.83C30.88 12.84 29.57 13.29 23.24 15.88Z" fill="#41D07A" fill-opacity="1.000000" fill-rule="evenodd"/>
</svg>
