<svg width="44.000000" height="44.000000" viewBox="0 0 44 44" fill="none" xmlns="http://www.w3.org/2000/svg" xmlns:xlink="http://www.w3.org/1999/xlink">
	<desc>
			Created with Pixso.
	</desc>
	<defs/>
	<path id="vk-icon-g" d="M30.25 0C37.84 0 44 6.15 44 13.75L44 30.25C44 37.84 37.84 44 30.25 44L13.75 44C6.15 44 0 37.84 0 30.25L0 13.75C0 6.15 6.15 0 13.75 0L30.25 0ZM30.25 2.75C36.32 2.75 41.25 7.67 41.25 13.75L41.25 30.25C41.25 36.32 36.32 41.25 30.25 41.25L13.75 41.25C7.67 41.25 2.75 36.32 2.75 30.25L2.75 13.75C2.75 7.67 7.67 2.75 13.75 2.75L30.25 2.75ZM18.52 13.75C19.97 13.75 20.99 13.75 22.6 13.75C22.95 13.74 23.4 13.81 23.69 14.01C23.9 14.16 24.18 14.33 24.18 15C24.18 15.87 24.18 16.69 24.18 17.5C24.18 18.76 24.18 20 24.2 21.37C24.24 21.84 24.54 22.03 24.82 22.03C25.1 22.03 25.42 21.85 25.66 21.61C26.97 20.3 28.47 17.15 29.39 15.08C29.71 14.36 30.23 14.36 30.81 14.36C30.84 14.36 30.88 14.36 30.91 14.36C32.18 14.36 33 14.37 33.87 14.38C34.45 14.39 35.05 14.39 35.83 14.4C36.19 14.4 36.5 14.71 36.6 14.93C36.69 15.13 36.75 15.69 36.27 16.48C34.8 18.93 33.45 20.9 31.81 23.22C31.71 23.36 31.61 23.54 31.61 23.72C31.61 23.89 31.7 24.05 31.81 24.17C33.27 25.74 34.79 27.32 36.29 29.05C36.73 29.56 36.45 30.34 36.33 30.56C36.24 30.73 35.83 31.16 35.55 31.16C35 31.16 34.74 31.16 33.94 31.16C33.27 31.16 32.21 31.16 30.28 31.16C29.65 31.16 29.39 30.97 29.06 30.61C27.59 29.03 27.77 29.22 26.15 27.45C25.94 27.22 25.52 26.93 25.13 27.12C24.79 27.27 24.17 27.5 24.17 28.14L24.17 30.36C24.17 30.76 23.55 31.06 23.18 31.06L20.28 31.06C18.92 31.06 17.74 30.73 17.09 30.4C14.27 29 12.6 27.06 10.77 23.82C9.2 21.05 7.84 18.32 6.5 15.47C6.35 15.15 6.25 14.45 7.36 14.45C8.54 14.45 9.65 14.42 11.45 14.42C11.98 14.42 12.3 14.53 12.53 14.7C12.75 14.86 12.85 15.08 12.96 15.29C15.2 19.54 15.2 19.8 16.8 21.91C16.95 22.1 17.16 22.14 17.32 22.14C17.52 22.14 17.7 22.1 17.86 21.98C18.18 21.71 18.27 21.43 18.27 21.02L18.27 16.72C18.27 16.23 17.94 15.5 17.58 15.27C17.49 15.21 17.38 15.16 17.27 15.1C16.94 14.94 16.59 14.76 16.61 14.55C16.63 14.26 17.31 13.75 18.52 13.75Z" fill="#41D07A" fill-opacity="1.000000" fill-rule="evenodd"/>
</svg>
