<svg width="8.000000" height="13.000000" viewBox="0 0 8 13" fill="none" xmlns="http://www.w3.org/2000/svg" xmlns:xlink="http://www.w3.org/1999/xlink">
	<desc>
			Created with Pixso.
	</desc>
	<defs/>
	<path id="arrow-left-icon-s-w" d="M7.56 0.42C7.85 0.7 8 1.06 8 1.47C8 1.87 7.83 2.23 7.55 2.52L7.54 2.52L3.51 6.5L7.55 10.48C7.83 10.77 8 11.13 8 11.53C8 11.93 7.85 12.29 7.56 12.56C7.28 12.85 6.93 13 6.53 13C6.13 13 5.78 12.85 5.5 12.57L5.49 12.57L0.49 7.62L0.49 7.62C0.18 7.32 0 6.94 0 6.51L0 6.5C0 6.07 0.18 5.69 0.48 5.38L0.49 5.38L5.5 0.41C5.78 0.14 6.13 0 6.53 0C6.92 0 7.28 0.13 7.56 0.42Z" fill="#FEFEFE" fill-opacity="1.000000" fill-rule="evenodd"/>
</svg>
