<svg width="8.000000" height="13.000000" viewBox="0 0 8 13" fill="none" xmlns="http://www.w3.org/2000/svg" xmlns:xlink="http://www.w3.org/1999/xlink">
	<desc>
			Created with Pixso.
	</desc>
	<defs/>
	<path id="arrow-right-icon-s-w" d="M0.43 12.57C0.14 12.29 0 11.93 0 11.52C0 11.12 0.16 10.76 0.44 10.47L0.45 10.47L4.48 6.49L0.44 2.51C0.16 2.22 0 1.86 0 1.46C0 1.06 0.14 0.7 0.43 0.43C0.71 0.14 1.06 0 1.46 0C1.86 0 2.21 0.14 2.5 0.42L2.5 0.42L7.5 5.37L7.5 5.37C7.81 5.67 7.99 6.05 8 6.48L8 6.49C8 6.92 7.81 7.3 7.51 7.61L7.5 7.61L2.49 12.58C2.21 12.85 1.86 13 1.46 13C1.07 13 0.71 12.86 0.43 12.57Z" fill="#FEFEFE" fill-opacity="1.000000" fill-rule="evenodd"/>
</svg>
