<svg width="13.000000" height="8.000000" viewBox="0 0 13 8" fill="none" xmlns="http://www.w3.org/2000/svg" xmlns:xlink="http://www.w3.org/1999/xlink">
	<desc>
			Created with Pixso.
	</desc>
	<defs/>
	<path id="arrow-down-icon-s-g" d="M0.42 0.43C0.7 0.14 1.06 0 1.47 0C1.87 0 2.23 0.16 2.52 0.44L2.52 0.44L6.5 4.48L10.48 0.44C10.77 0.16 11.13 0 11.53 0C11.93 0 12.29 0.14 12.56 0.43C12.85 0.71 13 1.06 13 1.47C13 1.86 12.85 2.21 12.57 2.5L12.57 2.5L7.62 7.5L7.62 7.5C7.32 7.81 6.94 7.99 6.51 8L6.5 8C6.07 8 5.69 7.81 5.38 7.51L5.38 7.5L0.41 2.49C0.14 2.21 0 1.86 0 1.47C0 1.07 0.13 0.71 0.42 0.43Z" fill="#41D07A" fill-opacity="1.000000" fill-rule="evenodd"/>
</svg>
