<svg width="13.000000" height="8.000000" viewBox="0 0 13 8" fill="none" xmlns="http://www.w3.org/2000/svg" xmlns:xlink="http://www.w3.org/1999/xlink">
	<desc>
			Created with Pixso.
	</desc>
	<defs/>
	<path id="arrow-up-icon-s-g" d="M12.57 7.56C12.29 7.85 11.93 8 11.52 8C11.12 8 10.76 7.83 10.47 7.55L10.47 7.55L6.49 3.51L2.51 7.55C2.22 7.83 1.86 8 1.46 8C1.06 8 0.7 7.85 0.43 7.56C0.14 7.28 0 6.93 0 6.52C0 6.13 0.14 5.78 0.42 5.5L0.42 5.49L5.37 0.49L5.37 0.49C5.67 0.18 6.05 0 6.48 0L6.49 0C6.92 0 7.3 0.18 7.61 0.48L7.61 0.49L12.58 5.5C12.85 5.78 13 6.13 13 6.52C13 6.92 12.86 7.28 12.57 7.56Z" fill="#41D07A" fill-opacity="1.000000" fill-rule="evenodd"/>
</svg>
