<svg width="13.000000" height="13.000000" viewBox="0 0 13 13" fill="none" xmlns="http://www.w3.org/2000/svg" xmlns:xlink="http://www.w3.org/1999/xlink">
	<desc>
			Created with Pixso.
	</desc>
	<defs/>
	<path id="plus-icon-s-g" d="M8 1.5C8 0.66 7.33 0 6.5 0C5.66 0 5 0.66 5 1.5L5 5L1.5 5C0.66 5 0 5.66 0 6.5C0 7.33 0.66 8 1.5 8L5 8L5 11.5C5 12.33 5.66 13 6.5 13C7.33 13 8 12.33 8 11.5L8 8L11.5 8C12.33 8 13 7.33 13 6.5C13 5.66 12.33 5 11.5 5L8 5L8 1.5Z" fill="#41D07A" fill-opacity="1.000000" fill-rule="evenodd"/>
</svg>
