<svg width="20.000000" height="12.000000" viewBox="0 0 20 12" fill="none" xmlns="http://www.w3.org/2000/svg" xmlns:xlink="http://www.w3.org/1999/xlink">
	<desc>
			Created with Pixso.
	</desc>
	<defs/>
	<path id="arrow-right-icon-l-w" d="M0.65 0.64C1.08 0.21 1.64 0 2.26 0C2.88 0 3.43 0.24 3.87 0.66L3.89 0.67L10.01 6.72L16.13 0.66C16.57 0.24 17.12 0 17.75 0C18.36 0 18.9 0.21 19.33 0.64C19.77 1.06 20 1.6 20 2.2C20 2.79 19.78 3.32 19.35 3.75L19.34 3.75L11.73 11.25L11.73 11.26C11.26 11.72 10.69 11.98 10.02 11.99L10.01 12C9.34 12 8.75 11.72 8.28 11.26L8.28 11.26L0.64 3.74C0.22 3.32 0 2.79 0 2.2C0 1.6 0.21 1.07 0.65 0.64Z" fill="#FEFEFE" fill-opacity="1.000000" fill-rule="evenodd"/>
</svg>
