<svg width="12.000000" height="20.000000" viewBox="0 0 12 20" fill="none" xmlns="http://www.w3.org/2000/svg" xmlns:xlink="http://www.w3.org/1999/xlink">
	<desc>
			Created with Pixso.
	</desc>
	<defs/>
	<path id="arrow-right-icon-l-w" d="M11.35 0.65C11.78 1.08 12 1.64 12 2.26C12 2.88 11.75 3.43 11.33 3.88L11.32 3.89L5.27 10.01L11.33 16.13C11.75 16.57 12 17.12 12 17.75C12 18.36 11.78 18.9 11.35 19.33C10.93 19.77 10.39 20 9.79 20C9.2 20 8.67 19.78 8.25 19.35L8.24 19.34L0.74 11.73L0.73 11.73C0.27 11.26 0.01 10.69 0 10.02L0 10.01C0 9.34 0.27 8.75 0.73 8.28L0.73 8.28L8.25 0.64C8.67 0.22 9.2 0 9.79 0C10.39 0 10.92 0.21 11.35 0.65Z" fill="#FEFEFE" fill-opacity="1.000000" fill-rule="evenodd"/>
</svg>
