<svg width="24.000000" height="20.000000" viewBox="0 0 24 20" fill="none" xmlns="http://www.w3.org/2000/svg" xmlns:xlink="http://www.w3.org/1999/xlink">
	<desc>
			Created with Pixso.
	</desc>
	<defs/>
	<path id="burger_icon-l-w" d="M0 2.19C0 0.99 0.89 0.02 2 0.02L21.99 0C23.1 0 24 0.97 24 2.17C24 3.37 23.1 4.34 21.99 4.34L2 4.36C0.89 4.36 0 3.39 0 2.19ZM2 7.83C0.89 7.83 0 8.81 0 10.01C0 11.21 0.89 12.18 2 12.18L21.99 12.16C23.1 12.16 24 11.18 24 9.98C24 8.78 23.1 7.81 21.99 7.81L2 7.83ZM0 17.82C0 16.62 0.89 15.65 2 15.65L21.99 15.63C23.1 15.63 24 16.6 24 17.8C24 19 23.1 19.97 21.99 19.97L2 20C0.89 20 0 19.02 0 17.82Z" fill="#FEFEFE" fill-opacity="1.000000" fill-rule="evenodd"/>
</svg>
