<svg width="19.799805" height="22.000000" viewBox="0 0 19.7998 22" fill="none" xmlns="http://www.w3.org/2000/svg" xmlns:xlink="http://www.w3.org/1999/xlink">
	<desc>
			Created with Pixso.
	</desc>
	<defs/>
	<path id="calendar_icon-l-w" d="M0 4.86C0 3.72 0.66 1.69 3.29 1.69C3.29 1.26 3.71 0 4.95 0C6.18 0 6.59 1.26 6.59 1.69L13.2 1.69C13.2 1.26 13.61 0 14.84 0C16.08 0 16.5 1.26 16.5 1.69C17.59 1.69 19.79 2.12 19.79 4.86L19.79 18.57C19.79 19.71 19.13 22 16.5 22L3.29 22C2.2 22 0 21.31 0 18.57L0 4.86ZM3.29 7.14C2.41 7.14 2.2 7.91 2.2 8.29L2.2 9.43C2.2 10.34 2.93 10.57 3.29 10.57L5.5 10.57C6.37 10.57 6.59 9.81 6.59 9.43L6.59 8.29C6.59 7.37 5.86 7.14 5.5 7.14L3.29 7.14ZM8.79 7.14C7.91 7.14 7.7 7.91 7.7 8.29L7.7 9.43C7.7 10.34 8.43 10.57 8.79 10.57L11 10.57C11.87 10.57 12.09 9.81 12.09 9.43L12.09 8.29C12.09 7.37 11.36 7.14 11 7.14L8.79 7.14ZM14.29 7.14C13.41 7.14 13.2 7.91 13.2 8.29L13.2 9.43C13.2 10.34 13.93 10.57 14.29 10.57L16.5 10.57C17.37 10.57 17.59 9.81 17.59 9.43L17.59 8.29C17.59 7.37 16.86 7.14 16.5 7.14L14.29 7.14ZM3.29 11.71C2.41 11.71 2.2 12.48 2.2 12.86L2.2 14C2.2 14.91 2.93 15.14 3.29 15.14L5.5 15.14C6.37 15.14 6.59 14.38 6.59 14L6.59 12.86C6.59 11.94 5.86 11.71 5.5 11.71L3.29 11.71ZM8.79 11.71C7.91 11.71 7.7 12.48 7.7 12.86L7.7 14C7.7 14.91 8.43 15.14 8.79 15.14L11 15.14C11.87 15.14 12.09 14.38 12.09 14L12.09 12.86C12.09 11.94 11.36 11.71 11 11.71L8.79 11.71ZM3.29 16.28C2.41 16.28 2.2 17.04 2.2 17.43L2.2 18.57C2.2 19.48 2.93 19.71 3.29 19.71L5.5 19.71C6.37 19.71 6.59 18.95 6.59 18.57L6.59 17.43C6.59 16.51 5.86 16.28 5.5 16.28L3.29 16.28ZM8.79 16.28C7.91 16.28 7.7 17.04 7.7 17.43L7.7 18.57C7.7 19.48 8.43 19.71 8.79 19.71L11 19.71C11.87 19.71 12.09 18.95 12.09 18.57L12.09 17.43C12.09 16.51 11.36 16.28 11 16.28L8.79 16.28ZM14.29 16.28C13.41 16.28 13.2 17.04 13.2 17.43L13.2 18.57C13.2 19.48 13.93 19.71 14.29 19.71L16.5 19.71C17.37 19.71 17.59 18.95 17.59 18.57L17.59 17.43C17.59 16.51 16.86 16.28 16.5 16.28L14.29 16.28Z" fill="#FEFEFE" fill-opacity="1.000000" fill-rule="evenodd"/>
</svg>
