<svg width="19.166992" height="19.166504" viewBox="0 0 19.167 19.1665" fill="none" xmlns="http://www.w3.org/2000/svg" xmlns:xlink="http://www.w3.org/1999/xlink">
	<desc>
			Created with Pixso.
	</desc>
	<defs/>
	<path id="plus-icon-l-w" d="M11.66 2.08C11.66 0.91 10.75 0 9.58 0C8.41 0 7.5 0.91 7.5 2.08L7.5 7.5L2.08 7.5C0.91 7.5 0 8.41 0 9.58C0 10.75 0.91 11.66 2.08 11.66L7.5 11.66L7.5 17.08C7.5 18.25 8.41 19.16 9.58 19.16C10.75 19.16 11.66 18.25 11.66 17.08L11.66 11.66L17.08 11.66C18.25 11.66 19.16 10.75 19.16 9.58C19.16 8.41 18.25 7.5 17.08 7.5L11.66 7.5L11.66 2.08Z" fill="#FEFEFE" fill-opacity="1.000000" fill-rule="evenodd"/>
</svg>
