<svg width="44.000000" height="44.000000" viewBox="0 0 44 44" fill="none" xmlns="http://www.w3.org/2000/svg" xmlns:xlink="http://www.w3.org/1999/xlink">
	<desc>
			Created with Pixso.
	</desc>
	<defs/>
	<path id="fb-icon-w" d="M30.25 0C37.84 0 44 6.15 44 13.75L44 30.25C44 37.84 37.84 44 30.25 44L13.75 44C6.15 44 0 37.84 0 30.25L0 13.75C0 6.15 6.15 0 13.75 0L30.25 0ZM30.25 2.75C36.32 2.75 41.25 7.67 41.25 13.75L41.25 30.25C41.25 36.32 36.32 41.25 30.25 41.25L13.75 41.25C7.67 41.25 2.75 36.32 2.75 30.25L2.75 13.75C2.75 7.67 7.67 2.75 13.75 2.75L30.25 2.75ZM18.65 35.75L23.53 35.75L23.53 23.49L27.08 23.49L27.97 18.49L23.53 18.49L23.53 15.77C23.53 13.59 25.01 13.04 25.75 13.04L28.41 13.04L28.41 8.5C20.61 7.05 18.65 12.13 18.65 14.86L18.65 18.49L14.66 18.49L14.66 23.03L18.65 23.03L18.65 35.75Z" fill="#FEFEFE" fill-opacity="1.000000" fill-rule="evenodd"/>
</svg>
