<svg width="44.000000" height="44.000000" viewBox="0 0 44 44" fill="none" xmlns="http://www.w3.org/2000/svg" xmlns:xlink="http://www.w3.org/1999/xlink">
	<desc>
			Created with Pixso.
	</desc>
	<defs/>
	<path id="wa-icon-w" d="M30.25 0C37.84 0 44 6.15 44 13.75L44 30.25C44 37.84 37.84 44 30.25 44L13.75 44C6.15 44 0 37.84 0 30.25L0 13.75C0 6.15 6.15 0 13.75 0L30.25 0ZM30.25 2.75C36.32 2.75 41.25 7.67 41.25 13.75L41.25 30.25C41.25 36.32 36.32 41.25 30.25 41.25L13.75 41.25C7.67 41.25 2.75 36.32 2.75 30.25L2.75 13.75C2.75 7.67 7.67 2.75 13.75 2.75L30.25 2.75ZM14.27 11.01C14.72 11.03 15.21 11.05 15.69 12.1C16.25 13.35 17.48 16.48 17.63 16.8C17.79 17.11 17.9 17.48 17.69 17.9C17.48 18.32 17.37 18.59 17.06 18.96C16.74 19.33 16.39 19.78 16.11 20.06C15.79 20.38 15.46 20.72 15.83 21.35C16.2 21.99 17.47 24.06 19.34 25.73C21.76 27.89 23.79 28.55 24.42 28.87C25.05 29.19 25.42 29.13 25.79 28.71C26.16 28.29 27.37 26.87 27.79 26.23C28.21 25.6 28.63 25.71 29.21 25.92C29.79 26.13 32.89 27.66 33.53 27.97C34.16 28.29 34.58 28.45 34.74 28.71C34.89 28.98 34.89 30.24 34.37 31.72C33.84 33.19 31.26 34.62 30.11 34.72C29.99 34.73 29.88 34.75 29.77 34.76C28.7 34.89 27.35 35.05 22.53 33.14C16.11 30.61 12.06 24.02 11.74 23.6C11.42 23.18 9.16 20.17 9.16 17.06C9.16 13.95 10.79 12.42 11.37 11.79C11.95 11.15 12.63 11 13.06 11L13.13 11C13.53 10.99 13.92 10.99 14.27 11.01Z" fill="#FEFEFE" fill-opacity="1.000000" fill-rule="evenodd"/>
</svg>
