<svg width="44.000000" height="44.000000" viewBox="0 0 44 44" fill="none" xmlns="http://www.w3.org/2000/svg" xmlns:xlink="http://www.w3.org/1999/xlink">
	<desc>
			Created with Pixso.
	</desc>
	<defs/>
	<path id="ya-icon-w" d="M30.25 0C37.84 0 44 6.15 44 13.75L44 30.25C44 37.84 37.84 44 30.25 44L13.75 44C6.15 44 0 37.84 0 30.25L0 13.75C0 6.15 6.15 0 13.75 0L30.25 0ZM30.25 2.75C36.32 2.75 41.25 7.67 41.25 13.75L41.25 30.25C41.25 36.32 36.32 41.25 30.25 41.25L13.75 41.25C7.67 41.25 2.75 36.32 2.75 30.25L2.75 13.75C2.75 7.67 7.67 2.75 13.75 2.75L30.25 2.75ZM23.52 11.17L25.88 11.17L25.88 35.72L31.16 35.72L31.16 7.33L23.49 7.33C15.77 7.33 11.7 11.06 11.7 16.54C11.7 20.9 13.92 23.49 17.88 26.14L11 35.75L16.73 35.75L24.39 25.01L21.72 23.33C18.49 21.27 16.92 19.67 16.92 16.25C16.92 13.22 19.2 11.17 23.52 11.17Z" fill="#FEFEFE" fill-opacity="1.000000" fill-rule="evenodd"/>
</svg>
