<svg width="330" height="330" viewBox="0 0 330 330" fill="none" xmlns="http://www.w3.org/2000/svg">
<path fill-rule="evenodd" clip-rule="evenodd" d="M162.936 0.486656C164.197 -0.162101 165.682 -0.162225 166.943 0.486322L325.581 82.1364L327.544 83.1471C329.05 83.9223 330 85.5003 330 87.2256V325.377C330 327.899 328.003 329.943 325.541 329.943H203.799C203.687 329.955 203.574 329.967 203.48 329.977C201.076 330.224 198.918 328.467 198.611 326.014C198.304 323.561 199.961 321.304 202.348 320.924L203.76 320.699C234.367 314.488 262.745 306.133 273.338 274.405C275.648 267.486 277.116 258.054 278.418 247.915C278.717 245.589 279.007 243.226 279.297 240.86C279.965 235.418 280.635 229.961 281.416 224.922C268.365 226.512 260.306 228.167 254.706 230.272C248.632 232.556 245.396 235.386 241.669 239.815C240.357 241.375 238.189 241.843 236.374 240.958C234.559 240.074 233.546 238.056 233.901 236.03C234.725 231.325 236.281 227.083 239.037 223.44C241.8 219.789 245.547 217.033 250.303 214.941C259.583 210.861 273.352 209.057 293.087 208.292C294.383 208.242 295.636 208.772 296.52 209.744C297.403 210.716 297.83 212.034 297.688 213.354C296.831 221.326 296.339 229.347 295.855 237.24C295.605 241.322 295.357 245.371 295.061 249.36C294.213 260.804 292.974 271.76 289.972 280.323C284.538 295.821 276.549 306.451 266.921 313.504H314.004V94.5561L164.942 17.8342L15.9955 94.5543V313.504H63.7418C54.1145 306.451 46.1252 295.821 40.6915 280.323C37.7017 271.796 36.2896 260.701 35.2754 249.079C34.8679 244.409 34.5257 239.677 34.1815 234.916C33.6473 227.529 33.1081 220.072 32.3121 212.669C32.1702 211.349 32.5966 210.031 33.4803 209.059C34.364 208.087 35.6172 207.557 36.9134 207.607C56.7083 208.374 71.1393 210.358 81.096 214.575C86.1553 216.718 90.2411 219.508 93.2862 223.169C96.3519 226.854 98.1567 231.174 99.0075 236.03C99.3624 238.056 98.3497 240.074 96.5346 240.958C94.7196 241.843 92.551 241.375 91.2392 239.816C87.659 235.56 83.9289 232.657 77.1824 230.309C71.039 228.172 62.4347 226.51 49.2472 224.919C50.0283 229.959 50.698 235.417 51.366 240.86C51.6564 243.226 51.9464 245.589 52.2451 247.915C53.5477 258.054 55.0152 267.486 57.3254 274.405C68.2375 307.089 96.3726 313.59 127.406 320.762L127.639 320.816L128.315 320.924C130.702 321.304 132.359 323.561 132.052 326.014C131.746 328.467 129.587 330.224 127.184 329.977C127.075 329.966 126.97 329.954 126.884 329.944C126.878 329.944 126.873 329.943 126.868 329.943H4.45946C1.99657 329.943 0 327.899 0 325.377V87.2263C0 85.5014 0.949663 83.9237 2.45475 83.1483L4.41746 82.1372L162.936 0.486656Z" fill="#41D07A"/>
<path fill-rule="evenodd" clip-rule="evenodd" d="M165.796 126.436C165.05 125.286 163.835 124.543 162.491 124.416C161.148 124.289 159.82 124.792 158.881 125.783C144.863 140.574 133.045 156.871 124.033 173.678C119.86 170.137 115.441 166.533 110.876 163.031C103.91 157.686 96.5815 152.562 89.2611 148.271L85.5025 146.067C84.2798 145.351 82.7981 145.268 81.5063 145.843C80.2144 146.419 79.2644 147.586 78.9439 148.991L77.9517 153.34C76.4323 160.001 73.4517 166.211 70.2904 172.751L70.2754 172.782C69.6294 174.118 68.9756 175.471 68.3463 176.806C65.9878 181.81 64.0574 185.948 62.8338 191.356C61.7557 196.121 61.5651 198.318 61.5651 201.205C61.5651 203.517 63.253 205.464 65.4951 205.738C67.6944 206.007 69.8061 206.301 71.8238 206.625C73.1615 206.84 74.522 206.421 75.5218 205.486C76.5217 204.552 77.0526 203.203 76.9648 201.819C76.854 200.073 76.9321 198.911 77.8318 194.934C78.6352 191.383 79.9934 188.4 82.2068 183.704C82.8081 182.428 83.4211 181.16 84.0493 179.86L84.0866 179.783L84.1421 179.668C86.0368 175.749 88.0554 171.574 89.7928 167.084C93.9855 169.804 98.2265 172.715 102.118 175.701C104.74 177.713 107.398 179.602 109.936 181.405C110.514 181.817 111.086 182.223 111.65 182.626C113.712 184.098 115.68 185.526 117.544 186.978C107.043 210.785 102.262 235.285 105.195 257.609C108.283 281.112 119.909 301.97 141.84 316.649C143.794 317.957 146.402 317.501 147.821 315.604C149.24 313.706 148.99 311.01 147.247 309.42C124.613 288.77 117.795 261.931 122.267 233.061C126.532 205.53 141.093 176.225 162.108 149.378C164.213 152.184 166.614 155.295 169.115 158.536C171.486 161.609 173.947 164.797 176.33 167.952C182.921 176.677 188.947 185.177 191.933 191.355C203.839 215.979 210.82 238.51 208.94 259.465C207.084 280.142 196.516 300.063 171.612 319.403C169.806 320.805 169.315 323.37 170.47 325.367C171.625 327.363 174.059 328.155 176.128 327.207C207.988 312.619 224.336 290.422 228.465 264.858C232.385 240.586 225.162 214.074 211.34 189.27C216.617 184.853 223.083 179.811 228.439 175.701C232.331 172.715 236.572 169.804 240.765 167.084C242.502 171.574 244.52 175.748 246.414 179.666L246.471 179.783L246.495 179.833C247.128 181.142 247.745 182.419 248.351 183.704C250.564 188.401 251.922 191.383 252.726 194.934C253.645 199 254.097 202.05 254.097 204.223C254.097 205.557 254.667 206.825 255.658 207.692C256.649 208.559 257.96 208.94 259.248 208.733C261.265 208.409 263.377 208.115 265.577 207.845C267.819 207.571 269.506 205.624 269.506 203.313C269.506 200.355 268.745 195.871 267.723 191.356C266.5 185.948 264.569 181.81 262.211 176.806C261.577 175.461 260.919 174.099 260.268 172.754L260.267 172.751C257.105 166.211 254.125 160.001 252.606 153.34L251.613 148.991C251.293 147.586 250.343 146.419 249.051 145.843C247.759 145.268 246.277 145.351 245.055 146.067L241.296 148.271C233.976 152.562 226.648 157.686 219.681 163.031C214.559 166.961 208.548 171.941 203.377 176.374C197.695 167.996 191.348 159.975 185.236 152.306L184.286 151.114C177.432 142.515 170.959 134.395 165.796 126.436Z" fill="#41D07A"/>
</svg>
