<svg width="300.000000" height="310.000000" viewBox="0 0 300 310" fill="none" xmlns="http://www.w3.org/2000/svg" xmlns:xlink="http://www.w3.org/1999/xlink">
	<defs/>
	<path id="logotype-v3" d="M299.39 123.06L300 266.3C300 290.39 280.47 309.92 256.39 309.92L189.19 309.96C188.42 310.04 187.7 309.98 187.01 309.77C186.35 309.58 185.72 309.25 185.14 308.79C184.52 308.31 184.04 307.76 183.68 307.13C183.35 306.53 183.14 305.87 183.04 305.14C182.95 304.4 182.99 303.7 183.16 303.03C183.34 302.34 183.67 301.69 184.14 301.07C184.58 300.49 185.1 300.02 185.68 299.67C186.3 299.29 187 299.05 187.77 298.93L188.95 298.75C204.87 295.66 216.77 292.01 224.64 287.8C231.15 284.32 236.43 279.91 240.47 274.57C243.31 270.82 245.54 266.62 247.16 261.96C248.68 257.61 250.1 250.49 251.43 240.59L252.18 234.8C252.76 230.33 253.24 226.73 253.64 224.05C244.46 225.2 237.75 226.54 233.53 228.06C233.27 228.15 233.01 228.25 232.75 228.36C229.17 229.79 225.96 232.13 223.1 235.38C222.18 236.44 221.16 237.08 220.06 237.32C218.94 237.56 217.73 237.37 216.43 236.77C215.11 236.15 214.19 235.33 213.68 234.31C213.17 233.31 213.04 232.13 213.3 230.75C214.11 226.32 215.69 222.61 218.06 219.62C220.55 216.47 224.01 213.96 228.43 212.1C235.75 209.02 248.18 207.15 265.73 206.5C266.61 206.47 267.41 206.6 268.15 206.91C268.85 207.2 269.49 207.65 270.06 208.26C270.66 208.89 271.09 209.58 271.33 210.33C271.57 211.06 271.64 211.84 271.55 212.67C271.06 217 270.54 223.51 269.99 232.18L269.3 242.15C268.41 253.72 266.92 262.35 264.84 268.04C261.26 277.81 256.25 285.72 249.81 291.75L256.39 291.75C259.91 291.75 263.16 291.12 266.16 289.88C269.16 288.64 271.9 286.78 274.38 284.29C276.86 281.81 278.72 279.06 279.97 276.07C281.21 273.07 281.83 269.81 281.83 266.3L281.22 123.06C281.22 118.82 280.37 115 278.67 111.6C276.97 108.2 274.42 105.23 271.02 102.69L164.93 23.25C162.67 21.56 160.27 20.29 157.73 19.44C155.19 18.6 152.51 18.17 149.69 18.17C146.87 18.17 144.19 18.6 141.65 19.44C139.11 20.29 136.71 21.56 134.45 23.25L28.36 102.69C24.96 105.23 22.41 108.2 20.71 111.6C19.01 115 18.16 118.82 18.16 123.06L18.77 266.3C18.77 269.81 19.39 273.07 20.63 276.07L20.64 276.07Q22.5 280.57 26.22 284.29C28.71 286.78 31.45 288.64 34.44 289.88L34.45 289.89Q38.94 291.75 44.21 291.75L51.32 291.75C44.87 285.71 39.85 277.8 36.27 268.01C34.17 262.28 32.58 253.58 31.52 241.92C31.29 239.35 30.97 235.47 30.58 230.27C29.97 222.17 29.44 216.11 28.99 212.08C28.89 211.25 28.96 210.47 29.2 209.74C29.45 208.99 29.87 208.3 30.48 207.67C31.05 207.06 31.69 206.61 32.39 206.32C33.12 206.01 33.93 205.88 34.8 205.91C52.45 206.56 65.28 208.51 73.28 211.76C77.99 213.67 81.7 216.19 84.41 219.3C84.93 219.9 85.41 220.51 85.86 221.16C87.77 223.9 89.07 227.09 89.73 230.72C89.98 232.1 89.86 233.28 89.35 234.28C88.83 235.3 87.91 236.12 86.59 236.74C85.29 237.34 84.08 237.53 82.97 237.29C81.86 237.05 80.85 236.41 79.92 235.35C79.38 234.74 78.81 234.16 78.22 233.6C75.59 231.17 72.4 229.32 68.67 228.08C64.08 226.55 57.01 225.2 47.46 224.02C47.86 226.7 48.34 230.29 48.92 234.78L49.67 240.56C51 250.46 52.42 257.58 53.94 261.93C55.77 267.17 58.33 271.81 61.62 275.85C65.56 280.69 70.56 284.66 76.62 287.78C81.19 290.14 86.82 292.27 93.49 294.16C97.55 295.32 104.61 296.97 113.33 298.9C114.11 299.02 114.8 299.27 115.42 299.64C116.01 300 116.52 300.46 116.97 301.04C117.44 301.66 117.76 302.31 117.94 303C118.12 303.67 118.16 304.37 118.06 305.11C117.97 305.84 117.75 306.5 117.42 307.1C117.07 307.73 116.58 308.29 115.96 308.77C115.39 309.22 114.77 309.54 114.12 309.74C113.43 309.95 112.7 309.96 111.9 309.94L44.21 309.92C20.13 309.92 0.61 290.39 0.61 266.3L0 123.06C0 109.32 6.47 96.37 17.47 88.13L123.57 8.69C139.05 -2.9 160.33 -2.9 175.81 8.69L281.91 88.13C292.91 96.37 299.39 109.32 299.39 123.06ZM151.81 137.3C151.11 136.87 150.29 136.61 149.38 136.53C148.47 136.45 147.63 136.55 146.86 136.84C146.12 137.12 145.44 137.56 144.83 138.18C133.19 149.94 123.49 158.55 115.74 172C112.42 169.34 109.19 166.86 106.06 164.56C99.41 159.67 93.17 155.59 87.35 152.33L84.13 150.52C83.32 150.06 82.49 149.81 81.66 149.77C80.82 149.72 79.97 149.88 79.1 150.25C78.21 150.63 77.5 151.15 76.95 151.82C76.43 152.44 76.06 153.2 75.85 154.08L75 157.65C74.16 161.2 72.02 166.38 68.58 173.18L67.91 174.53L66.91 176.52C64.41 181.6 62.79 185.71 62.05 188.85C61.29 192.05 60.91 194.88 60.91 197.35C60.91 198.04 61.03 198.69 61.25 199.29C61.49 199.93 61.86 200.51 62.35 201.05C62.81 201.56 63.32 201.96 63.89 202.26C64.49 202.58 65.16 202.79 65.89 202.87C67.79 203.09 69.58 203.33 71.24 203.59C72.15 203.73 72.99 203.68 73.78 203.44C74.54 203.21 75.25 202.8 75.9 202.21C76.59 201.6 77.08 200.91 77.39 200.15C77.68 199.41 77.8 198.61 77.74 197.73C77.66 196.61 77.9 194.9 78.44 192.62C78.89 190.7 80.09 187.76 82.05 183.79L82.09 183.71L83.62 180.65L83.7 180.49C85.41 177.1 86.76 174.28 87.76 172.02C91.02 174.09 93.9 176.04 96.4 177.88C97.92 179 100.17 180.57 103.16 182.6L104.63 183.6C106.1 184.61 107.37 185.5 108.43 186.27C99.23 206.75 95.86 225.95 98.32 243.87C99.66 253.65 102.66 262.44 107.31 270.24C112.78 279.39 120.52 287.17 130.54 293.6C131.14 293.99 131.78 294.25 132.43 294.39C133.11 294.53 133.82 294.54 134.55 294.42C135.3 294.29 135.97 294.04 136.58 293.68C137.14 293.33 137.64 292.88 138.07 292.33C138.54 291.74 138.86 291.11 139.05 290.44C139.23 289.8 139.29 289.12 139.22 288.4C139.15 287.69 138.97 287.04 138.67 286.45C138.36 285.82 137.92 285.26 137.35 284.76C129.57 277.97 123.87 270.3 120.23 261.75C115.48 250.59 114.25 237.93 116.54 223.77C120.01 202.3 130.79 180.28 148.87 157.73C150.04 159.2 151.57 161.12 153.48 163.48L157.55 168.55L159.65 171.19C166.38 179.72 170.77 186.02 172.82 190.08C183.8 211.83 188.6 230.13 187.21 244.98C187.05 246.69 186.81 248.38 186.48 250.06C183.45 265.71 173.28 279.98 155.95 292.87C155.35 293.31 154.88 293.82 154.52 294.4C154.18 294.95 153.94 295.56 153.81 296.23C153.67 296.92 153.66 297.59 153.77 298.24C153.88 298.9 154.12 299.54 154.5 300.16C154.85 300.74 155.28 301.24 155.78 301.64C156.31 302.07 156.94 302.39 157.64 302.61C158.32 302.83 159 302.91 159.66 302.88C160.33 302.84 160.98 302.68 161.63 302.39C180.89 293.95 194.22 282.48 201.62 267.97C204.47 262.39 206.45 256.36 207.54 249.87C210.76 230.81 206.05 210.18 193.43 188C196.93 185.23 201.39 181.86 206.8 177.89C209.31 176.04 212.19 174.09 215.45 172.02C216.44 174.28 217.8 177.1 219.51 180.49L219.56 180.59L221.13 183.73C223.08 187.7 224.32 190.7 224.77 192.62C225.52 195.8 225.9 198.2 225.9 199.82C225.9 200.66 226.05 201.43 226.37 202.12C226.7 202.85 227.21 203.49 227.88 204.06C228.53 204.6 229.22 204.98 229.96 205.19C230.72 205.41 231.54 205.45 232.4 205.32C234.06 205.06 235.85 204.82 237.76 204.6C238.49 204.51 239.15 204.31 239.76 203.99C240.33 203.69 240.84 203.29 241.3 202.78C241.79 202.24 242.15 201.65 242.39 201.02C242.62 200.41 242.73 199.77 242.73 199.07C242.73 196.7 242.21 193.29 241.16 188.85C240.42 185.71 238.8 181.6 236.29 176.52L235.3 174.53L234.62 173.18C231.2 166.4 229.05 161.2 228.2 157.65L227.35 154.08C227.14 153.2 226.78 152.44 226.26 151.82C225.71 151.15 224.99 150.63 224.1 150.25C223.24 149.88 222.39 149.72 221.55 149.77C220.71 149.81 219.89 150.06 219.08 150.52L215.85 152.33C210.03 155.59 203.8 159.67 197.15 164.56C193.49 167.25 189.3 170.51 184.6 174.34C181.2 169.68 176.37 163.59 170.1 156.06L169.29 155.08C161.71 145.98 156.47 143.28 153.55 138.98C153.06 138.26 152.49 137.7 151.81 137.3Z" fill="#42D07A" fill-opacity="1.000000" fill-rule="evenodd"/>
</svg>
