<svg width="16.666992" height="16.666687" viewBox="0 0 16.667 16.6667" fill="none" xmlns="http://www.w3.org/2000/svg" xmlns:xlink="http://www.w3.org/1999/xlink">
	<desc>
			Created with Pixso.
	</desc>
	<defs/>
	<path id="x-icon-l-r" d="M3.58 0.62C2.75 -0.21 1.45 -0.21 0.62 0.62C-0.21 1.45 -0.21 2.75 0.62 3.58L5.36 8.33L0.62 13.07C-0.21 13.9 -0.21 15.21 0.62 16.04C1.45 16.87 2.75 16.87 3.58 16.04L8.33 11.29L13.07 16.04C13.9 16.87 15.21 16.87 16.04 16.04C16.87 15.21 16.87 13.9 16.04 13.07L11.29 8.33L16.04 3.58C16.87 2.75 16.87 1.45 16.04 0.62C15.21 -0.21 13.9 -0.21 13.07 0.62L8.33 5.36L3.58 0.62Z" fill="#D14A41" fill-opacity="1.000000" fill-rule="evenodd"/>
</svg>
