<svg width="13.000000" height="13.000000" viewBox="0 0 13 13" fill="none" xmlns="http://www.w3.org/2000/svg" xmlns:xlink="http://www.w3.org/1999/xlink">
	<desc>
			Created with Pixso.
	</desc>
	<defs/>
	<path id="x-icon-s-r" d="M2.56 0.44C1.97 -0.15 1.03 -0.15 0.44 0.44C-0.15 1.03 -0.15 1.97 0.44 2.56L4.38 6.5L0.44 10.43C-0.15 11.02 -0.15 11.96 0.44 12.55C1.03 13.14 1.97 13.14 2.56 12.55L6.5 8.61L10.43 12.55C11.02 13.14 11.96 13.14 12.55 12.55C13.14 11.96 13.14 11.02 12.55 10.43L8.61 6.5L12.55 2.56C13.14 1.97 13.14 1.03 12.55 0.44C11.96 -0.15 11.02 -0.15 10.43 0.44L6.5 4.38L2.56 0.44Z" fill="#D14A41" fill-opacity="1.000000" fill-rule="evenodd"/>
</svg>
