<svg width="13" height="23" viewBox="0 0 13 23" fill="none" xmlns="http://www.w3.org/2000/svg">
<path fill-rule="evenodd" clip-rule="evenodd" d="M12.37 21.8665C12.7894 21.4381 13.0001 20.9061 13.0001 20.3013C13.0001 19.7022 12.7702 19.1716 12.346 18.7263L12.3388 18.7187L5.15609 11.4862L12.3461 4.25917C12.7703 3.81384 13.0001 3.28311 13.0001 2.6841C13.0001 2.08822 12.7887 1.56578 12.37 1.14808C11.9585 0.717854 11.4364 0.5 10.837 0.5C10.247 0.5 9.73073 0.712956 9.31961 1.13231L9.31846 1.13348L0.735108 9.79844L0.733795 9.79975C0.266764 10.2655 0.012362 10.8305 0.00021028 11.4759L3.28971e-05 11.4854C3.29253e-05 12.1308 0.259738 12.7014 0.730651 13.1824L0.732417 13.1842L9.32371 21.8718C9.74036 22.2849 10.2532 22.5 10.837 22.5C11.434 22.5 11.9565 22.2889 12.37 21.8665Z" fill="#41D07A"/>
</svg>
