<svg width="22" height="13" viewBox="0 0 22 13" fill="none" xmlns="http://www.w3.org/2000/svg">
<path fill-rule="evenodd" clip-rule="evenodd" d="M21.3665 12.3699C20.9381 12.7894 20.4061 13.0001 19.8013 13.0001C19.2022 13.0001 18.6716 12.7702 18.2263 12.346L18.2187 12.3388L10.9862 5.15606L3.75917 12.3461C3.31384 12.7703 2.78311 13.0001 2.1841 13.0001C1.58822 13.0001 1.06578 12.7886 0.648075 12.3699C0.217853 11.9585 -5.23952e-08 11.4363 0 10.837C5.15819e-08 10.247 0.212956 9.7307 0.632315 9.31957L0.63348 9.31843L9.29844 0.735075L9.29975 0.733762C9.76545 0.266731 10.3305 0.012329 10.9759 0.000177383L10.9854 0C11.6308 5.64273e-08 12.2014 0.259706 12.6824 0.730619L12.6842 0.732384L21.3718 9.32368C21.7849 9.74033 22 10.2532 22 10.837C22 11.434 21.7889 11.9564 21.3665 12.3699Z" fill="#41D07A"/>
</svg>
