<svg width="12.000000" height="20.000000" viewBox="0 0 12 20" fill="none" xmlns="http://www.w3.org/2000/svg" xmlns:xlink="http://www.w3.org/1999/xlink">
	<desc>
			Created with Pixso.
	</desc>
	<defs/>
	<path id="arrow-right-icon-l-g" d="M0.64 19.34C0.21 18.91 0 18.35 0 17.73C0 17.11 0.24 16.56 0.66 16.11L0.67 16.1L6.72 9.98L0.66 3.86C0.24 3.42 0 2.87 0 2.25C0 1.63 0.21 1.09 0.64 0.66C1.06 0.22 1.6 0 2.2 0C2.79 0 3.32 0.21 3.75 0.64L3.75 0.65L11.25 8.26L11.26 8.26C11.72 8.73 11.98 9.3 12 9.97L12 9.98C12 10.65 11.72 11.24 11.26 11.71L11.26 11.71L3.74 19.35C3.32 19.77 2.79 20 2.2 20C1.6 20 1.07 19.78 0.64 19.34Z" fill="#41D07A" fill-opacity="1.000000" fill-rule="evenodd"/>
</svg>
