<svg width="20.000000" height="12.000000" viewBox="0 0 20 12" fill="none" xmlns="http://www.w3.org/2000/svg" xmlns:xlink="http://www.w3.org/1999/xlink">
	<desc>
			Created with Pixso.
	</desc>
	<defs/>
	<path id="arrow-right-icon-l-g" d="M19.34 11.35C18.91 11.78 18.35 12 17.73 12C17.11 12 16.56 11.75 16.12 11.33L16.1 11.32L9.98 5.27L3.86 11.33C3.42 11.75 2.87 12 2.25 12C1.63 12 1.09 11.78 0.66 11.35C0.22 10.93 0 10.39 0 9.79C0 9.2 0.21 8.67 0.64 8.25L0.65 8.24L8.26 0.74L8.26 0.73C8.73 0.27 9.3 0.01 9.97 0L9.98 0C10.65 0 11.24 0.27 11.71 0.73L11.71 0.73L19.35 8.25C19.77 8.67 20 9.2 20 9.79C20 10.39 19.78 10.92 19.34 11.35Z" fill="#41D07A" fill-opacity="1.000000" fill-rule="evenodd"/>
</svg>
