<svg width="22.000000" height="23.000000" viewBox="0 0 22 23" fill="none" xmlns="http://www.w3.org/2000/svg" xmlns:xlink="http://www.w3.org/1999/xlink">
	<desc>
			Created with Pixso.
	</desc>
	<defs/>
	<path id="logotype-icon" d="M21.95 9.13L22 19.75C22 21.54 20.56 22.99 18.8 22.99L13.87 22.99C13.81 23 13.76 22.99 13.71 22.98C13.66 22.96 13.62 22.94 13.57 22.91C13.53 22.87 13.49 22.83 13.47 22.78C13.44 22.74 13.43 22.69 13.42 22.63C13.41 22.58 13.41 22.53 13.43 22.48C13.44 22.43 13.46 22.38 13.5 22.33C13.53 22.29 13.57 22.26 13.61 22.23C13.66 22.2 13.71 22.18 13.77 22.17L13.85 22.16C15.02 21.93 15.89 21.66 16.47 21.35C16.95 21.09 17.33 20.76 17.63 20.37C17.84 20.09 18 19.78 18.12 19.43C18.23 19.11 18.34 18.58 18.43 17.85L18.49 17.42C18.53 17.08 18.57 16.82 18.6 16.62C17.92 16.7 17.43 16.8 17.12 16.92C17.1 16.92 17.08 16.93 17.06 16.94C16.8 17.04 16.57 17.22 16.36 17.46C16.29 17.54 16.21 17.59 16.13 17.6C16.05 17.62 15.96 17.61 15.87 17.56C15.77 17.52 15.7 17.46 15.66 17.38C15.63 17.31 15.62 17.22 15.64 17.12C15.7 16.79 15.81 16.51 15.99 16.29C16.17 16.06 16.42 15.87 16.75 15.73C17.28 15.5 18.2 15.36 19.48 15.32C19.55 15.31 19.61 15.32 19.66 15.35C19.71 15.37 19.76 15.4 19.8 15.45C19.84 15.49 19.87 15.55 19.89 15.6C19.91 15.65 19.92 15.71 19.91 15.77C19.87 16.1 19.83 16.58 19.79 17.22L19.74 17.96C19.68 18.82 19.57 19.46 19.42 19.88C19.15 20.61 18.79 21.19 18.32 21.64L18.8 21.64C19.06 21.64 19.29 21.59 19.51 21.5C19.73 21.41 19.93 21.27 20.12 21.09C20.3 20.9 20.43 20.7 20.53 20.48C20.62 20.26 20.66 20.01 20.66 19.75L20.62 9.13C20.62 8.81 20.56 8.53 20.43 8.28C20.31 8.02 20.12 7.8 19.87 7.61L12.09 1.72C11.92 1.59 11.75 1.5 11.56 1.44C11.38 1.38 11.18 1.34 10.97 1.34C10.77 1.34 10.57 1.38 10.38 1.44C10.2 1.5 10.02 1.59 9.86 1.72L2.07 7.61C1.83 7.8 1.64 8.02 1.51 8.28C1.39 8.53 1.33 8.81 1.33 9.13L1.37 19.75C1.37 20.01 1.42 20.26 1.51 20.48C1.6 20.7 1.74 20.9 1.92 21.09C2.1 21.27 2.3 21.41 2.52 21.5C2.74 21.59 2.98 21.64 3.24 21.64L3.76 21.64C3.29 21.19 2.92 20.61 2.65 19.88C2.5 19.45 2.38 18.81 2.31 17.94C2.29 17.75 2.27 17.47 2.24 17.08C2.19 16.48 2.15 16.03 2.12 15.73C2.11 15.67 2.12 15.61 2.14 15.56C2.16 15.5 2.19 15.45 2.23 15.4C2.27 15.36 2.32 15.32 2.37 15.3C2.42 15.28 2.48 15.27 2.55 15.27C3.84 15.32 4.78 15.47 5.37 15.71C5.71 15.85 5.99 16.03 6.19 16.27C6.22 16.31 6.26 16.36 6.29 16.4C6.43 16.61 6.53 16.84 6.58 17.11C6.59 17.22 6.58 17.3 6.55 17.38C6.51 17.45 6.44 17.51 6.35 17.56C6.25 17.6 6.16 17.62 6.08 17.6C6 17.58 5.92 17.54 5.86 17.46C5.82 17.41 5.78 17.37 5.73 17.33C5.54 17.15 5.31 17.01 5.03 16.92C4.69 16.8 4.18 16.7 3.48 16.62C3.51 16.82 3.54 17.08 3.58 17.41L3.64 17.84C3.74 18.58 3.84 19.11 3.95 19.43C4.08 19.82 4.27 20.16 4.51 20.46C4.8 20.82 5.17 21.12 5.61 21.35C5.95 21.52 6.36 21.68 6.85 21.82C7.15 21.91 7.67 22.03 8.31 22.17C8.36 22.18 8.41 22.2 8.46 22.23C8.5 22.25 8.54 22.29 8.57 22.33C8.61 22.38 8.63 22.42 8.64 22.48C8.66 22.53 8.66 22.58 8.65 22.63C8.65 22.69 8.63 22.74 8.61 22.78C8.58 22.83 8.54 22.87 8.5 22.9C8.46 22.94 8.41 22.96 8.36 22.98C8.31 22.99 8.26 22.99 8.2 22.99L3.24 22.99C1.47 22.99 0.04 21.54 0.04 19.75L0 9.13C0 8.11 0.47 7.15 1.28 6.53L9.06 0.64C10.19 -0.22 11.75 -0.22 12.89 0.64L20.67 6.53C21.48 7.15 21.95 8.11 21.95 9.13ZM11.13 10.18C11.08 10.15 11.02 10.13 10.95 10.13C10.88 10.12 10.82 10.13 10.77 10.15C10.71 10.17 10.66 10.2 10.62 10.25C9.76 11.12 9.05 11.76 8.48 12.76C8.24 12.56 8 12.38 7.77 12.2C7.29 11.84 6.83 11.54 6.4 11.3L6.16 11.16C6.11 11.13 6.04 11.11 5.98 11.11C5.92 11.1 5.86 11.12 5.8 11.14C5.73 11.17 5.68 11.21 5.64 11.26C5.6 11.31 5.57 11.36 5.56 11.43L5.5 11.69C5.43 11.96 5.28 12.34 5.02 12.84L4.97 12.94L4.9 13.09C4.72 13.47 4.6 13.77 4.55 14.01C4.49 14.24 4.46 14.45 4.46 14.64C4.46 14.69 4.47 14.74 4.49 14.78C4.5 14.83 4.53 14.87 4.57 14.91C4.6 14.95 4.64 14.98 4.68 15C4.72 15.03 4.77 15.04 4.83 15.05C4.97 15.06 5.1 15.08 5.22 15.1C5.29 15.11 5.35 15.11 5.41 15.09C5.46 15.07 5.51 15.04 5.56 15C5.61 14.95 5.65 14.9 5.67 14.84C5.69 14.79 5.7 14.73 5.7 14.67C5.69 14.58 5.71 14.46 5.75 14.29C5.78 14.14 5.87 13.93 6.01 13.63L6.02 13.63L6.13 13.4L6.13 13.39C6.26 13.14 6.36 12.93 6.43 12.76C6.67 12.91 6.88 13.06 7.06 13.19C7.18 13.28 7.34 13.39 7.56 13.54L7.67 13.62C7.78 13.69 7.87 13.76 7.95 13.82C7.27 15.33 7.02 16.76 7.21 18.09C7.3 18.81 7.52 19.47 7.87 20.05C8.27 20.72 8.83 21.3 9.57 21.78C9.61 21.81 9.66 21.83 9.71 21.84C9.76 21.85 9.81 21.85 9.86 21.84C9.92 21.83 9.97 21.81 10.01 21.78C10.05 21.76 10.09 21.73 10.12 21.68C10.15 21.64 10.18 21.59 10.19 21.54C10.21 21.5 10.21 21.45 10.21 21.39C10.2 21.34 10.19 21.29 10.16 21.25C10.14 21.2 10.11 21.16 10.07 21.12C9.5 20.62 9.08 20.05 8.81 19.42C8.46 18.59 8.37 17.65 8.54 16.6C8.8 15 9.59 13.37 10.91 11.7C11 11.81 11.11 11.95 11.25 12.12L11.55 12.5L11.7 12.7C12.2 13.33 12.52 13.8 12.67 14.1C13.47 15.71 13.83 17.07 13.72 18.17C13.71 18.3 13.69 18.42 13.67 18.55C13.45 19.71 12.7 20.77 11.43 21.72C11.39 21.76 11.35 21.79 11.33 21.84C11.3 21.88 11.28 21.92 11.27 21.97C11.26 22.03 11.26 22.07 11.27 22.12C11.28 22.17 11.3 22.22 11.33 22.27C11.35 22.31 11.38 22.35 11.42 22.37C11.46 22.41 11.5 22.43 11.56 22.45C11.61 22.46 11.66 22.47 11.7 22.47C11.75 22.46 11.8 22.45 11.85 22.43C13.26 21.8 14.24 20.95 14.78 19.88C14.99 19.46 15.13 19.02 15.21 18.53C15.45 17.12 15.11 15.59 14.18 13.94C14.44 13.74 14.76 13.49 15.16 13.19C15.34 13.06 15.56 12.91 15.79 12.76C15.87 12.93 15.97 13.14 16.09 13.39L16.1 13.39L16.21 13.63C16.35 13.92 16.45 14.14 16.48 14.29C16.53 14.52 16.56 14.7 16.56 14.82C16.56 14.88 16.57 14.94 16.6 14.99C16.62 15.05 16.66 15.09 16.71 15.14C16.75 15.18 16.81 15.2 16.86 15.22C16.91 15.24 16.98 15.24 17.04 15.23C17.16 15.21 17.29 15.19 17.43 15.18C17.48 15.17 17.53 15.15 17.58 15.13C17.62 15.11 17.66 15.08 17.69 15.04C17.73 15 17.75 14.96 17.77 14.91C17.79 14.86 17.8 14.82 17.8 14.77C17.8 14.59 17.76 14.34 17.68 14.01C17.63 13.77 17.51 13.47 17.32 13.09L17.25 12.94L17.2 12.84C16.95 12.34 16.79 11.96 16.73 11.69L16.67 11.43C16.65 11.36 16.63 11.31 16.59 11.26C16.55 11.21 16.49 11.17 16.43 11.14C16.37 11.12 16.3 11.1 16.24 11.11C16.18 11.11 16.12 11.13 16.06 11.16L15.82 11.3C15.4 11.54 14.94 11.84 14.45 12.2C14.18 12.4 13.88 12.65 13.53 12.93C13.28 12.58 12.93 12.13 12.47 11.57L12.41 11.5C11.85 10.83 11.47 10.63 11.26 10.31C11.22 10.25 11.18 10.21 11.13 10.18Z" fill="#42D07A" fill-opacity="1.000000" fill-rule="evenodd"/>
</svg>
