<svg width="20.000000" height="22.000000" viewBox="0 0 20 22" fill="none" xmlns="http://www.w3.org/2000/svg" xmlns:xlink="http://www.w3.org/1999/xlink">
	<desc>
			Created with Pixso.
	</desc>
	<defs/>
	<path id="order-icon" d="M16.55 4.34L15.05 4.34C14.93 3.11 14.38 2.08 13.41 1.24C12.44 0.41 11.31 0 10 0C8.68 0 7.55 0.41 6.58 1.24C5.61 2.08 5.06 3.11 4.94 4.34L3.44 4.34C2.49 4.34 1.68 4.66 1 5.29C0.33 5.93 0 6.69 0 7.59L0 18.74C0 19.64 0.33 20.41 1 21.04C1.68 21.68 2.49 21.99 3.44 22L16.55 22C17.5 21.99 18.31 21.68 18.99 21.04C19.66 20.41 19.99 19.64 20 18.74L20 7.59C19.99 6.69 19.66 5.93 18.99 5.29C18.31 4.66 17.5 4.34 16.55 4.34ZM10 1.49C10.87 1.5 11.63 1.77 12.29 2.31C12.95 2.85 13.34 3.53 13.46 4.34L6.53 4.34C6.65 3.53 7.04 2.85 7.7 2.31C8.36 1.77 9.12 1.5 10 1.49ZM18.41 18.74C18.41 19.23 18.23 19.64 17.86 19.98C17.5 20.32 17.07 20.49 16.55 20.5L3.44 20.5C2.92 20.49 2.49 20.32 2.13 19.98C1.76 19.64 1.58 19.23 1.58 18.74L1.58 7.59C1.58 7.11 1.76 6.7 2.13 6.35C2.49 6.01 2.92 5.84 3.44 5.84L16.55 5.84C17.07 5.84 17.5 6.01 17.86 6.35C18.23 6.7 18.41 7.11 18.41 7.59L18.41 18.74Z" fill="#42D07A" fill-opacity="1.000000" fill-rule="nonzero"/>
</svg>
