<svg width="50" height="50" viewBox="0 0 50 50" fill="none" xmlns="http://www.w3.org/2000/svg">
<path fill-rule="evenodd" clip-rule="evenodd" d="M32.6087 4.34783H17.3913C14.2758 4.34783 12.2007 4.35121 10.6062 4.48148C9.0626 4.6076 8.35625 4.83065 7.90876 5.05865C6.68162 5.68391 5.68392 6.68161 5.05865 7.90876C4.83065 8.35624 4.6076 9.0626 4.48148 10.6062C4.35121 12.2007 4.34782 14.2758 4.34782 17.3913V32.6087C4.34782 35.7242 4.35121 37.7993 4.48148 39.3938C4.6076 40.9374 4.83065 41.6438 5.05865 42.0912C5.68392 43.3184 6.68162 44.3161 7.90876 44.9413C8.35625 45.1694 9.0626 45.3924 10.6062 45.5185C12.2007 45.6488 14.2758 45.6522 17.3913 45.6522H32.6087C35.7242 45.6522 37.7993 45.6488 39.3938 45.5185C40.9374 45.3924 41.6438 45.1694 42.0912 44.9413C43.3184 44.3161 44.3161 43.3184 44.9413 42.0912C45.1694 41.6438 45.3924 40.9374 45.5185 39.3938C45.6488 37.7993 45.6522 35.7242 45.6522 32.6087V17.3913C45.6522 14.2758 45.6488 12.2007 45.5185 10.6062C45.3924 9.0626 45.1694 8.35624 44.9413 7.90876C44.3161 6.68161 43.3184 5.68391 42.0912 5.05865C41.6438 4.83065 40.9374 4.6076 39.3938 4.48148C37.7993 4.35121 35.7242 4.34783 32.6087 4.34783ZM1.18472 5.93489C3.57628e-06 8.26001 0 11.3038 0 17.3913V32.6087C0 38.6962 3.57628e-06 41.74 1.18472 44.0651C2.22682 46.1104 3.88964 47.7732 5.93488 48.8153C8.26001 50 11.3038 50 17.3913 50H32.6087C38.6962 50 41.74 50 44.0651 48.8153C46.1103 47.7732 47.7732 46.1104 48.8153 44.0651C50 41.74 50 38.6962 50 32.6087V17.3913C50 11.3038 50 8.26001 48.8153 5.93489C47.7732 3.88965 46.1103 2.22681 44.0651 1.18471C41.74 -2.38419e-07 38.6962 0 32.6087 0H17.3913C11.3038 0 8.26001 -2.38419e-07 5.93488 1.18471C3.88964 2.22681 2.22682 3.88965 1.18472 5.93489Z" fill="#FEFEFE"/>
<path d="M27 40.2819H21.5V26.2819H17V21.2819H21.5V17.2819C21.5 14.2819 23.7 8.68192 32.5 10.2819V15.2817H29.5C28.6667 15.2817 27 15.8816 27 18.2817V21.2819H32L31 26.7817H27V40.2819Z" fill="#FEFEFE"/>
</svg>
