<svg width="50" height="50" viewBox="0 0 50 50" fill="none" xmlns="http://www.w3.org/2000/svg">
<path fill-rule="evenodd" clip-rule="evenodd" d="M11.3163 24.7359C18.6043 21.5606 23.4641 19.4673 25.8958 18.4559C32.8385 15.5682 34.2812 15.0665 35.2215 15.05C35.4283 15.0463 35.8907 15.0976 36.1902 15.3406C36.4431 15.5459 36.5127 15.8231 36.546 16.0177C36.5793 16.2122 36.6208 16.6555 36.5878 17.0018C36.2116 20.9549 34.5837 30.548 33.7555 34.9756C33.405 36.849 32.715 37.4772 32.0469 37.5387C30.5951 37.6723 29.4927 36.5792 28.0866 35.6575C25.8862 34.2151 24.6432 33.3173 22.5074 31.9098C20.0391 30.2832 21.6392 29.3893 23.0459 27.9282C23.414 27.5459 29.8107 21.7276 29.9345 21.1998C29.9499 21.1338 29.9643 20.8878 29.8181 20.7578C29.672 20.6279 29.4562 20.6723 29.3005 20.7077C29.0798 20.7578 25.5648 23.0811 18.7554 27.6776C17.7576 28.3627 16.8539 28.6966 16.0442 28.6791C15.1516 28.6598 13.4345 28.1744 12.1581 27.7594C10.5924 27.2505 9.34812 26.9814 9.45647 26.1171C9.51291 25.6669 10.1329 25.2065 11.3163 24.7359Z" fill="#FEFEFE"/>
<path fill-rule="evenodd" clip-rule="evenodd" d="M32.6087 4.34783H17.3913C14.2758 4.34783 12.2007 4.35121 10.6062 4.48148C9.0626 4.6076 8.35624 4.83065 7.90876 5.05865C6.68161 5.68391 5.68392 6.68161 5.05865 7.90876C4.83065 8.35624 4.6076 9.0626 4.48148 10.6062C4.35121 12.2007 4.34782 14.2758 4.34782 17.3913V32.6087C4.34782 35.7242 4.35121 37.7993 4.48148 39.3938C4.6076 40.9374 4.83065 41.6438 5.05865 42.0912C5.68392 43.3184 6.68161 44.3161 7.90876 44.9413C8.35624 45.1694 9.0626 45.3924 10.6062 45.5185C12.2007 45.6488 14.2758 45.6522 17.3913 45.6522H32.6087C35.7242 45.6522 37.7993 45.6488 39.3938 45.5185C40.9374 45.3924 41.6438 45.1694 42.0912 44.9413C43.3184 44.3161 44.3161 43.3184 44.9413 42.0912C45.1694 41.6438 45.3924 40.9374 45.5185 39.3938C45.6488 37.7993 45.6522 35.7242 45.6522 32.6087V17.3913C45.6522 14.2758 45.6488 12.2007 45.5185 10.6062C45.3924 9.0626 45.1694 8.35624 44.9413 7.90876C44.3161 6.68161 43.3184 5.68391 42.0912 5.05865C41.6438 4.83065 40.9374 4.6076 39.3938 4.48148C37.7993 4.35121 35.7242 4.34783 32.6087 4.34783ZM1.18471 5.93489C-2.38419e-07 8.26001 0 11.3038 0 17.3913V32.6087C0 38.6962 -2.38419e-07 41.74 1.18471 44.0651C2.22681 46.1104 3.88965 47.7732 5.93489 48.8153C8.26001 50 11.3038 50 17.3913 50H32.6087C38.6962 50 41.74 50 44.0651 48.8153C46.1104 47.7732 47.7732 46.1104 48.8153 44.0651C50 41.74 50 38.6962 50 32.6087V17.3913C50 11.3038 50 8.26001 48.8153 5.93489C47.7732 3.88964 46.1104 2.22681 44.0651 1.18471C41.74 -2.38419e-07 38.6962 0 32.6087 0H17.3913C11.3038 0 8.26001 -2.38419e-07 5.93489 1.18471C3.88965 2.22681 2.22681 3.88964 1.18471 5.93489Z" fill="#FEFEFE"/>
</svg>
