<svg width="50" height="50" viewBox="0 0 50 50" fill="none" xmlns="http://www.w3.org/2000/svg">
<path d="M25.4002 16.6665C23.5374 16.6754 22.3496 16.6776 20.6751 16.6776C19.2745 16.6776 18.4879 17.2527 18.4629 17.5957C18.44 17.9094 19.1549 18.163 19.5895 18.4168C20.0091 18.6806 20.388 19.5181 20.388 20.0838V25.0182C20.388 25.4871 20.2829 25.8137 19.9094 26.1194C19.7315 26.265 19.52 26.3037 19.2915 26.3024C19.1065 26.3014 18.8549 26.2663 18.6817 26.0389C16.8368 23.6166 16.8308 23.3175 14.2464 18.4362C14.1211 18.1994 13.9972 17.9482 13.7405 17.7594C13.4838 17.5705 13.1034 17.446 12.4936 17.446C10.4164 17.446 9.13438 17.4765 7.7685 17.4765C6.47563 17.4765 6.59999 18.2807 6.77316 18.647C8.32318 21.9254 9.89696 25.0556 11.7061 28.2329C13.8248 31.9538 15.7616 34.1888 19.0207 35.7941C19.7772 36.1667 21.1412 36.5513 22.7177 36.5513H26.0674C26.4978 36.5513 27.2131 36.2069 27.2131 35.7442V33.1951C27.2131 32.4661 27.9297 32.2011 28.3206 32.0218C28.7811 31.8107 29.2641 32.1436 29.5073 32.4074C31.38 34.4381 31.1672 34.2171 32.8734 36.0354C33.259 36.4463 33.5502 36.6623 34.2789 36.6623C39.2002 36.6623 39.2042 36.6718 40.3795 36.6623C40.7022 36.6596 41.1814 36.1686 41.2873 35.9772C41.4271 35.7245 41.7449 34.8225 41.2354 34.238C39.5059 32.2543 37.7431 30.4379 36.0536 28.6351C35.9248 28.4977 35.8274 28.3116 35.8239 28.122C35.82 27.9146 35.9341 27.7133 36.0536 27.5451C37.9485 24.8772 39.5138 22.6181 41.2162 19.8119C41.7696 18.8998 41.6981 18.2537 41.5963 18.0312C41.4785 17.7735 41.1158 17.4177 40.6994 17.4154C38.4259 17.4025 37.4425 17.3702 35.0172 17.3738C34.2929 17.3749 33.6513 17.3185 33.2535 18.2032C32.1876 20.5738 30.4486 24.1912 28.9386 25.695C28.6598 25.9725 28.2874 26.1788 27.9624 26.1804C27.6374 26.182 27.2918 25.9574 27.2432 25.4204C27.206 22.8403 27.237 20.6392 27.2241 18.1116C27.2201 17.3391 26.899 17.1403 26.6553 16.9689C26.3248 16.7363 25.8025 16.6646 25.4002 16.6665Z" fill="#FEFEFE"/>
<path fill-rule="evenodd" clip-rule="evenodd" d="M32.6087 4.34783H17.3913C14.2758 4.34783 12.2007 4.35121 10.6062 4.48148C9.0626 4.6076 8.35624 4.83065 7.90876 5.05865C6.68161 5.68391 5.68391 6.68161 5.05865 7.90876C4.83065 8.35624 4.6076 9.0626 4.48148 10.6062C4.35121 12.2007 4.34783 14.2758 4.34783 17.3913V32.6087C4.34783 35.7242 4.35121 37.7993 4.48148 39.3938C4.6076 40.9374 4.83065 41.6438 5.05865 42.0912C5.68391 43.3184 6.68161 44.3161 7.90876 44.9413C8.35624 45.1694 9.0626 45.3924 10.6062 45.5185C12.2007 45.6488 14.2758 45.6522 17.3913 45.6522H32.6087C35.7242 45.6522 37.7993 45.6488 39.3938 45.5185C40.9374 45.3924 41.6438 45.1694 42.0912 44.9413C43.3184 44.3161 44.3161 43.3184 44.9413 42.0912C45.1694 41.6438 45.3924 40.9374 45.5185 39.3938C45.6488 37.7993 45.6522 35.7242 45.6522 32.6087V17.3913C45.6522 14.2758 45.6488 12.2007 45.5185 10.6062C45.3924 9.0626 45.1694 8.35624 44.9413 7.90876C44.3161 6.68161 43.3184 5.68391 42.0912 5.05865C41.6438 4.83065 40.9374 4.6076 39.3938 4.48148C37.7993 4.35121 35.7242 4.34783 32.6087 4.34783ZM1.18471 5.93489C-2.38419e-07 8.26001 0 11.3038 0 17.3913V32.6087C0 38.6962 -2.38419e-07 41.74 1.18471 44.0651C2.22681 46.1104 3.88965 47.7732 5.93489 48.8153C8.26001 50 11.3038 50 17.3913 50H32.6087C38.6962 50 41.74 50 44.0651 48.8153C46.1103 47.7732 47.7732 46.1104 48.8153 44.0651C50 41.74 50 38.6962 50 32.6087V17.3913C50 11.3038 50 8.26001 48.8153 5.93489C47.7732 3.88964 46.1103 2.22681 44.0651 1.18471C41.74 -2.38419e-07 38.6962 0 32.6087 0H17.3913C11.3038 0 8.26001 -2.38419e-07 5.93489 1.18471C3.88965 2.22681 2.22681 3.88964 1.18471 5.93489Z" fill="#FEFEFE"/>
</svg>
