<svg width="50" height="50" viewBox="0 0 50 50" fill="none" xmlns="http://www.w3.org/2000/svg">
<path fill-rule="evenodd" clip-rule="evenodd" d="M32.6087 4.34783H17.3913C14.2758 4.34783 12.2007 4.35121 10.6062 4.48148C9.0626 4.6076 8.35624 4.83065 7.90876 5.05865C6.68161 5.68391 5.68391 6.68161 5.05865 7.90876C4.83065 8.35624 4.6076 9.0626 4.48148 10.6062C4.35121 12.2007 4.34783 14.2758 4.34783 17.3913V32.6087C4.34783 35.7242 4.35121 37.7993 4.48148 39.3938C4.6076 40.9374 4.83065 41.6438 5.05865 42.0912C5.68391 43.3184 6.68161 44.3161 7.90876 44.9413C8.35624 45.1694 9.0626 45.3924 10.6062 45.5185C12.2007 45.6488 14.2758 45.6522 17.3913 45.6522H32.6087C35.7242 45.6522 37.7993 45.6488 39.3938 45.5185C40.9374 45.3924 41.6438 45.1694 42.0912 44.9413C43.3184 44.3161 44.3161 43.3184 44.9413 42.0912C45.1694 41.6438 45.3924 40.9374 45.5185 39.3938C45.6488 37.7993 45.6522 35.7242 45.6522 32.6087V17.3913C45.6522 14.2758 45.6488 12.2007 45.5185 10.6062C45.3924 9.0626 45.1694 8.35624 44.9413 7.90876C44.3161 6.68161 43.3184 5.68391 42.0912 5.05865C41.6438 4.83065 40.9374 4.6076 39.3938 4.48148C37.7993 4.35121 35.7242 4.34783 32.6087 4.34783ZM1.18471 5.93489C-2.38419e-07 8.26001 0 11.3038 0 17.3913V32.6087C0 38.6962 -2.38419e-07 41.74 1.18471 44.0651C2.22681 46.1104 3.88965 47.7732 5.93489 48.8153C8.26001 50 11.3038 50 17.3913 50H32.6087C38.6962 50 41.74 50 44.0651 48.8153C46.1103 47.7732 47.7732 46.1104 48.8153 44.0651C50 41.74 50 38.6962 50 32.6087V17.3913C50 11.3038 50 8.26001 48.8153 5.93489C47.7732 3.88964 46.1103 2.22681 44.0651 1.18471C41.74 -2.38419e-07 38.6962 0 32.6087 0H17.3913C11.3038 0 8.26001 -2.38419e-07 5.93489 1.18471C3.88965 2.22681 2.22681 3.88964 1.18471 5.93489Z" fill="#FEFEFE"/>
<path fill-rule="evenodd" clip-rule="evenodd" d="M18.1188 13.2079C17.6026 12.0592 17.0596 12.0362 16.5686 12.016C16.1669 11.9989 15.7074 12 15.2484 12C14.7889 12 14.0425 12.1727 13.4114 12.8629C12.7798 13.5532 11 15.2217 11 18.6152C11 22.009 13.469 25.2883 13.8129 25.7489C14.1575 26.2087 18.579 33.3955 25.5808 36.1601C31.4004 38.4577 32.5847 38.0007 33.8478 37.8856C35.1109 37.7708 37.9238 36.2176 38.4977 34.6069C39.0719 32.9965 39.0719 31.616 38.8997 31.3277C38.7276 31.0402 38.2681 30.8676 37.5792 30.5229C36.89 30.1779 33.5031 28.5091 32.8718 28.2789C32.2401 28.049 31.7808 27.9342 31.3213 28.6247C30.8621 29.3144 29.5427 30.8676 29.1406 31.3277C28.7388 31.7886 28.3368 31.8462 27.6479 31.5012C26.9588 31.1551 24.7399 30.4274 22.1078 28.0779C20.0597 26.2497 18.6772 23.9919 18.2751 23.3013C17.8733 22.6116 18.2322 22.238 18.5776 21.8941C18.8872 21.585 19.2668 21.0887 19.6114 20.6862C19.9551 20.2834 20.0698 19.9959 20.2994 19.5358C20.5293 19.0754 20.4144 18.6726 20.2422 18.3276C20.0698 17.9826 18.7314 14.5718 18.1188 13.2079Z" fill="#FEFEFE"/>
</svg>
