<svg width="50" height="50" viewBox="0 0 50 50" fill="none" xmlns="http://www.w3.org/2000/svg">
<path fill-rule="evenodd" clip-rule="evenodd" d="M32.6087 4.34783H17.3913C14.2758 4.34783 12.2007 4.35121 10.6062 4.48148C9.0626 4.6076 8.35624 4.83065 7.90876 5.05865C6.68161 5.68391 5.68391 6.68161 5.05865 7.90876C4.83065 8.35624 4.6076 9.0626 4.48148 10.6062C4.35121 12.2007 4.34783 14.2758 4.34783 17.3913V32.6087C4.34783 35.7242 4.35121 37.7993 4.48148 39.3938C4.6076 40.9374 4.83065 41.6438 5.05865 42.0912C5.68391 43.3184 6.68161 44.3161 7.90876 44.9413C8.35624 45.1694 9.0626 45.3924 10.6062 45.5185C12.2007 45.6488 14.2758 45.6522 17.3913 45.6522H32.6087C35.7242 45.6522 37.7993 45.6488 39.3938 45.5185C40.9374 45.3924 41.6438 45.1694 42.0912 44.9413C43.3184 44.3161 44.3161 43.3184 44.9413 42.0912C45.1694 41.6438 45.3924 40.9374 45.5185 39.3938C45.6488 37.7993 45.6522 35.7242 45.6522 32.6087V17.3913C45.6522 14.2758 45.6488 12.2007 45.5185 10.6062C45.3924 9.0626 45.1694 8.35624 44.9413 7.90876C44.3161 6.68161 43.3184 5.68391 42.0912 5.05865C41.6438 4.83065 40.9374 4.6076 39.3938 4.48148C37.7993 4.35121 35.7242 4.34783 32.6087 4.34783ZM1.18471 5.93489C-2.38419e-07 8.26001 0 11.3038 0 17.3913V32.6087C0 38.6962 -2.38419e-07 41.74 1.18471 44.0651C2.22681 46.1104 3.88965 47.7732 5.93489 48.8153C8.26001 50 11.3038 50 17.3913 50H32.6087C38.6962 50 41.74 50 44.0651 48.8153C46.1103 47.7732 47.7732 46.1104 48.8153 44.0651C50 41.74 50 38.6962 50 32.6087V17.3913C50 11.3038 50 8.26001 48.8153 5.93489C47.7732 3.88964 46.1103 2.22681 44.0651 1.18471C41.74 -2.38419e-07 38.6962 0 32.6087 0H17.3913C11.3038 0 8.26001 -2.38419e-07 5.93489 1.18471C3.88965 2.22681 2.22681 3.88964 1.18471 5.93489Z" fill="#FEFEFE"/>
<path d="M29.9777 13.3263H27.2869C22.3538 13.3263 19.7591 15.6376 19.7591 19.0453C19.7591 22.8975 21.5529 24.7023 25.2368 27.0163L28.2799 28.9128L19.5348 41H13L20.8482 30.187C16.3344 27.1941 13.8008 24.2875 13.8008 19.3712C13.8008 13.2078 18.4457 9 27.2549 9H36V40.9704H29.9777V13.3263Z" fill="#FEFEFE"/>
</svg>
