<svg width="22" height="24" viewBox="0 0 22 24" fill="none" xmlns="http://www.w3.org/2000/svg">
<path fill-rule="evenodd" clip-rule="evenodd" d="M0 5.30768C0 4.06153 0.733333 1.84615 3.66667 1.84615C3.66667 1.38462 4.125 0 5.5 0C6.875 0 7.33333 1.38462 7.33333 1.84615H14.6667C14.6667 1.38462 15.125 0 16.5 0C17.875 0 18.3333 1.38462 18.3333 1.84615C19.5556 1.84615 22 2.31691 22 5.30768V20.2615C22 21.5077 21.2667 24 18.3333 24H3.66667C2.44444 24 0 23.2523 0 20.2615V5.30768ZM3.66667 7.79999C2.68889 7.79999 2.44444 8.63076 2.44444 9.04615V10.2923C2.44444 11.2892 3.25926 11.5385 3.66667 11.5385H6.11111C7.08889 11.5385 7.33333 10.7077 7.33333 10.2923V9.04615C7.33333 8.04922 6.51852 7.79999 6.11111 7.79999H3.66667ZM9.77778 7.79999C8.8 7.79999 8.55556 8.63076 8.55556 9.04615V10.2923C8.55556 11.2892 9.37037 11.5385 9.77778 11.5385H12.2222C13.2 11.5385 13.4444 10.7077 13.4444 10.2923V9.04615C13.4444 8.04922 12.6296 7.79999 12.2222 7.79999H9.77778ZM15.8889 7.79999C14.9111 7.79999 14.6667 8.63076 14.6667 9.04615V10.2923C14.6667 11.2892 15.4815 11.5385 15.8889 11.5385H18.3333C19.3111 11.5385 19.5556 10.7077 19.5556 10.2923V9.04615C19.5556 8.04922 18.7407 7.79999 18.3333 7.79999H15.8889ZM3.66667 12.7846C2.68889 12.7846 2.44444 13.6154 2.44444 14.0308V15.2769C2.44444 16.2738 3.25926 16.5231 3.66667 16.5231H6.11111C7.08889 16.5231 7.33333 15.6923 7.33333 15.2769V14.0308C7.33333 13.0338 6.51852 12.7846 6.11111 12.7846H3.66667ZM9.77778 12.7846C8.8 12.7846 8.55556 13.6154 8.55556 14.0308V15.2769C8.55556 16.2738 9.37037 16.5231 9.77778 16.5231H12.2222C13.2 16.5231 13.4444 15.6923 13.4444 15.2769V14.0308C13.4444 13.0338 12.6296 12.7846 12.2222 12.7846H9.77778ZM3.66667 17.7692C2.68889 17.7692 2.44444 18.6 2.44444 19.0154V20.2615C2.44444 21.2585 3.25926 21.5077 3.66667 21.5077H6.11111C7.08889 21.5077 7.33333 20.6769 7.33333 20.2615V19.0154C7.33333 18.0185 6.51852 17.7692 6.11111 17.7692H3.66667ZM9.77778 17.7692C8.8 17.7692 8.55556 18.6 8.55556 19.0154V20.2615C8.55556 21.2585 9.37037 21.5077 9.77778 21.5077H12.2222C13.2 21.5077 13.4444 20.6769 13.4444 20.2615V19.0154C13.4444 18.0185 12.6296 17.7692 12.2222 17.7692H9.77778ZM15.8889 17.7692C14.9111 17.7692 14.6667 18.6 14.6667 19.0154V20.2615C14.6667 21.2585 15.4815 21.5077 15.8889 21.5077H18.3333C19.3111 21.5077 19.5556 20.6769 19.5556 20.2615V19.0154C19.5556 18.0185 18.7407 17.7692 18.3333 17.7692H15.8889Z" fill="#FEFEFE"/>
</svg>
