<svg width="22" height="13" viewBox="0 0 22 13" fill="none" xmlns="http://www.w3.org/2000/svg">
<path fill-rule="evenodd" clip-rule="evenodd" d="M0.63348 0.630171C1.06193 0.210721 1.59394 0 2.19874 0C2.79776 0 3.3284 0.229893 3.77373 0.65409L3.78127 0.661276L11.0138 7.84403L18.2408 0.654005C18.6862 0.229808 19.2169 0 19.8159 0C20.4118 0 20.9342 0.211456 21.3519 0.630158C21.7821 1.04158 22 1.56375 22 2.16308C22 2.75311 21.787 3.26939 21.3677 3.68051L21.3665 3.68166L12.7016 12.265L12.7002 12.2663C12.2345 12.7334 11.6695 12.9878 11.0241 12.9999L11.0146 13.0001C10.3692 13.0001 9.79859 12.7404 9.31758 12.2695L9.31579 12.2677L0.628169 3.67641C0.215098 3.25976 0 2.7469 0 2.16308C0 1.56613 0.211143 1.04364 0.63348 0.630171Z" fill="#FEFEFE"/>
</svg>
