<svg width="13" height="23" viewBox="0 0 13 23" fill="none" xmlns="http://www.w3.org/2000/svg">
<path fill-rule="evenodd" clip-rule="evenodd" d="M0.630171 21.8665C0.210721 21.4381 6.96733e-08 20.9061 9.61102e-08 20.3013C1.22294e-07 19.7022 0.229893 19.1716 0.65409 18.7263L0.661276 18.7187L7.84403 11.4862L0.654005 4.25917C0.229808 3.81384 8.39997e-07 3.28311 8.66181e-07 2.6841C8.92227e-07 2.08822 0.211457 1.56578 0.630159 1.14808C1.04158 0.717854 1.56375 0.5 2.16308 0.5C2.75311 0.5 3.26939 0.712956 3.68052 1.13231L3.68166 1.13348L12.265 9.79844L12.2663 9.79975C12.7334 10.2655 12.9878 10.8305 12.9999 11.4759L13.0001 11.4854C13.0001 12.1308 12.7404 12.7014 12.2695 13.1824L12.2677 13.1842L3.67641 21.8718C3.25976 22.2849 2.7469 22.5 2.16308 22.5C1.56613 22.5 1.04364 22.2889 0.630171 21.8665Z" fill="#FEFEFE"/>
</svg>
