<svg width="22" height="22" viewBox="0 0 22 22" fill="none" xmlns="http://www.w3.org/2000/svg">
<path d="M0.66018 21.3665C0.220756 20.9381 6.96733e-08 20.4061 9.61102e-08 19.8013C1.22294e-07 19.2022 0.240841 18.6716 0.685237 18.2263L0.692765 18.2187L8.21755 10.9862L0.685148 3.75916C0.240752 3.31384 8.39997e-07 2.78311 8.66181e-07 2.1841C8.92227e-07 1.58822 0.221526 1.06578 0.660166 0.648073C1.09118 0.217852 1.63821 -1.83574e-06 2.26609 -1.80829e-06C2.88421 -1.78128e-06 3.42508 0.212954 3.85578 0.632313L3.85697 0.633478L11 7.51668L18.1431 0.633479L18.1442 0.632314C18.5749 0.212954 19.1158 -1.07177e-06 19.7339 -1.04475e-06C20.3618 -1.01731e-06 20.9088 0.217853 21.3398 0.648074C21.7785 1.06578 22 1.58822 22 2.1841C22 2.78311 21.7593 3.31384 21.3149 3.75917L13.7825 10.9862L21.3072 18.2187L21.3148 18.2263C21.7592 18.6716 22 19.2022 22 19.8013C22 20.4061 21.7792 20.9381 21.3398 21.3665C20.9067 21.7889 20.3593 22 19.7339 22C19.1223 22 18.585 21.7849 18.1485 21.3718L11 14.4717L3.85148 21.3718C3.41499 21.7849 2.8777 22 2.26609 22C1.64071 22 1.09334 21.7889 0.66018 21.3665Z" fill="#FEFEFE"/>
</svg>
